<mxfile host="Electron" modified="2024-08-25T18:16:32.619Z" agent="Mozilla/5.0 (Windows NT 10.0; Win64; x64) AppleWebKit/537.36 (KHTML, like Gecko) draw.io/22.1.16 Chrome/120.0.6099.109 Electron/28.1.0 Safari/537.36" etag="a1NguzJV03kikGww5l8e" version="22.1.16" type="device">
  <diagram name="Page-1" id="gbDvgD6Yeap9GhXsHFMk">
    <mxGraphModel dx="1678" dy="769" grid="1" gridSize="10" guides="1" tooltips="1" connect="1" arrows="1" fold="1" page="1" pageScale="1" pageWidth="600" pageHeight="150" math="0" shadow="0">
      <root>
        <mxCell id="0" />
        <mxCell id="1" parent="0" />
        <mxCell id="onQa2OD9SXyAo4OJvlsq-6" value="1" style="points=[[0.145,0.145,0],[0.5,0,0],[0.855,0.145,0],[1,0.5,0],[0.855,0.855,0],[0.5,1,0],[0.145,0.855,0],[0,0.5,0]];shape=mxgraph.bpmn.event;html=1;verticalLabelPosition=middle;labelBackgroundColor=#ffffff;verticalAlign=middle;align=center;perimeter=ellipsePerimeter;outlineConnect=0;aspect=fixed;outline=standard;symbol=general;labelPosition=center;" vertex="1" parent="1">
          <mxGeometry x="-1067" y="-366.5" width="30" height="30" as="geometry" />
        </mxCell>
        <mxCell id="onQa2OD9SXyAo4OJvlsq-29" style="rounded=0;orthogonalLoop=1;jettySize=auto;html=1;curved=1;" edge="1" parent="1" source="onQa2OD9SXyAo4OJvlsq-24" target="onQa2OD9SXyAo4OJvlsq-27">
          <mxGeometry relative="1" as="geometry">
            <Array as="points">
              <mxPoint x="-902" y="-340" />
            </Array>
          </mxGeometry>
        </mxCell>
        <mxCell id="onQa2OD9SXyAo4OJvlsq-30" value="ε" style="edgeLabel;html=1;align=center;verticalAlign=middle;resizable=0;points=[];" vertex="1" connectable="0" parent="onQa2OD9SXyAo4OJvlsq-29">
          <mxGeometry x="-0.3348" y="1" relative="1" as="geometry">
            <mxPoint x="27" y="-20" as="offset" />
          </mxGeometry>
        </mxCell>
        <mxCell id="onQa2OD9SXyAo4OJvlsq-32" style="rounded=0;orthogonalLoop=1;jettySize=auto;html=1;curved=1;" edge="1" parent="1" source="onQa2OD9SXyAo4OJvlsq-24" target="onQa2OD9SXyAo4OJvlsq-31">
          <mxGeometry relative="1" as="geometry">
            <Array as="points">
              <mxPoint x="-942" y="-410" />
            </Array>
          </mxGeometry>
        </mxCell>
        <mxCell id="onQa2OD9SXyAo4OJvlsq-33" value="ε" style="edgeLabel;html=1;align=center;verticalAlign=middle;resizable=0;points=[];" vertex="1" connectable="0" parent="onQa2OD9SXyAo4OJvlsq-32">
          <mxGeometry x="0.1122" relative="1" as="geometry">
            <mxPoint y="10" as="offset" />
          </mxGeometry>
        </mxCell>
        <mxCell id="onQa2OD9SXyAo4OJvlsq-24" value="2" style="points=[[0.145,0.145,0],[0.5,0,0],[0.855,0.145,0],[1,0.5,0],[0.855,0.855,0],[0.5,1,0],[0.145,0.855,0],[0,0.5,0]];shape=mxgraph.bpmn.event;html=1;verticalLabelPosition=middle;labelBackgroundColor=#ffffff;verticalAlign=middle;align=center;perimeter=ellipsePerimeter;outlineConnect=0;aspect=fixed;outline=standard;symbol=general;labelPosition=center;" vertex="1" parent="1">
          <mxGeometry x="-982" y="-410" width="30" height="30" as="geometry" />
        </mxCell>
        <mxCell id="onQa2OD9SXyAo4OJvlsq-25" style="rounded=0;orthogonalLoop=1;jettySize=auto;html=1;curved=1;" edge="1" parent="1" source="onQa2OD9SXyAo4OJvlsq-6" target="onQa2OD9SXyAo4OJvlsq-24">
          <mxGeometry relative="1" as="geometry">
            <Array as="points">
              <mxPoint x="-1022" y="-390" />
            </Array>
          </mxGeometry>
        </mxCell>
        <mxCell id="onQa2OD9SXyAo4OJvlsq-26" value="X" style="edgeLabel;html=1;align=center;verticalAlign=middle;resizable=0;points=[];" vertex="1" connectable="0" parent="onQa2OD9SXyAo4OJvlsq-25">
          <mxGeometry x="0.0353" y="1" relative="1" as="geometry">
            <mxPoint x="9" y="14" as="offset" />
          </mxGeometry>
        </mxCell>
        <mxCell id="onQa2OD9SXyAo4OJvlsq-27" value="5" style="points=[[0.145,0.145,0],[0.5,0,0],[0.855,0.145,0],[1,0.5,0],[0.855,0.855,0],[0.5,1,0],[0.145,0.855,0],[0,0.5,0]];shape=mxgraph.bpmn.event;html=1;verticalLabelPosition=middle;labelBackgroundColor=#ffffff;verticalAlign=middle;align=center;perimeter=ellipsePerimeter;outlineConnect=0;aspect=fixed;outline=standard;symbol=general;labelPosition=center;" vertex="1" parent="1">
          <mxGeometry x="-762" y="-365" width="30" height="30" as="geometry" />
        </mxCell>
        <mxCell id="onQa2OD9SXyAo4OJvlsq-28" style="rounded=0;orthogonalLoop=1;jettySize=auto;html=1;curved=1;entryX=0.145;entryY=0.855;entryDx=0;entryDy=0;entryPerimeter=0;" edge="1" parent="1" source="onQa2OD9SXyAo4OJvlsq-6" target="onQa2OD9SXyAo4OJvlsq-27">
          <mxGeometry relative="1" as="geometry">
            <Array as="points">
              <mxPoint x="-932" y="-310" />
              <mxPoint x="-802" y="-320" />
            </Array>
          </mxGeometry>
        </mxCell>
        <mxCell id="onQa2OD9SXyAo4OJvlsq-41" value="Z" style="edgeLabel;html=1;align=center;verticalAlign=middle;resizable=0;points=[];" vertex="1" connectable="0" parent="onQa2OD9SXyAo4OJvlsq-28">
          <mxGeometry x="0.035" y="17" relative="1" as="geometry">
            <mxPoint x="2" y="5" as="offset" />
          </mxGeometry>
        </mxCell>
        <mxCell id="onQa2OD9SXyAo4OJvlsq-35" style="rounded=0;orthogonalLoop=1;jettySize=auto;html=1;curved=1;" edge="1" parent="1" source="onQa2OD9SXyAo4OJvlsq-31" target="onQa2OD9SXyAo4OJvlsq-34">
          <mxGeometry relative="1" as="geometry">
            <Array as="points">
              <mxPoint x="-852" y="-415" />
            </Array>
          </mxGeometry>
        </mxCell>
        <mxCell id="onQa2OD9SXyAo4OJvlsq-36" value="X,Y" style="edgeLabel;html=1;align=center;verticalAlign=middle;resizable=0;points=[];" vertex="1" connectable="0" parent="onQa2OD9SXyAo4OJvlsq-35">
          <mxGeometry x="-0.3753" y="-1" relative="1" as="geometry">
            <mxPoint x="4" y="11" as="offset" />
          </mxGeometry>
        </mxCell>
        <mxCell id="onQa2OD9SXyAo4OJvlsq-31" value="3" style="points=[[0.145,0.145,0],[0.5,0,0],[0.855,0.145,0],[1,0.5,0],[0.855,0.855,0],[0.5,1,0],[0.145,0.855,0],[0,0.5,0]];shape=mxgraph.bpmn.event;html=1;verticalLabelPosition=middle;labelBackgroundColor=#ffffff;verticalAlign=middle;align=center;perimeter=ellipsePerimeter;outlineConnect=0;aspect=fixed;outline=standard;symbol=general;labelPosition=center;" vertex="1" parent="1">
          <mxGeometry x="-902" y="-430" width="30" height="30" as="geometry" />
        </mxCell>
        <mxCell id="onQa2OD9SXyAo4OJvlsq-37" style="rounded=0;orthogonalLoop=1;jettySize=auto;html=1;curved=1;" edge="1" parent="1" source="onQa2OD9SXyAo4OJvlsq-34" target="onQa2OD9SXyAo4OJvlsq-27">
          <mxGeometry relative="1" as="geometry">
            <Array as="points">
              <mxPoint x="-772" y="-380" />
            </Array>
          </mxGeometry>
        </mxCell>
        <mxCell id="onQa2OD9SXyAo4OJvlsq-38" value="ε" style="edgeLabel;html=1;align=center;verticalAlign=middle;resizable=0;points=[];" vertex="1" connectable="0" parent="onQa2OD9SXyAo4OJvlsq-37">
          <mxGeometry x="-0.6097" relative="1" as="geometry">
            <mxPoint x="2" y="10" as="offset" />
          </mxGeometry>
        </mxCell>
        <mxCell id="onQa2OD9SXyAo4OJvlsq-34" value="4" style="points=[[0.145,0.145,0],[0.5,0,0],[0.855,0.145,0],[1,0.5,0],[0.855,0.855,0],[0.5,1,0],[0.145,0.855,0],[0,0.5,0]];shape=mxgraph.bpmn.event;html=1;verticalLabelPosition=middle;labelBackgroundColor=#ffffff;verticalAlign=middle;align=center;perimeter=ellipsePerimeter;outlineConnect=0;aspect=fixed;outline=standard;symbol=general;labelPosition=center;" vertex="1" parent="1">
          <mxGeometry x="-822" y="-410" width="30" height="30" as="geometry" />
        </mxCell>
        <mxCell id="onQa2OD9SXyAo4OJvlsq-39" style="rounded=0;orthogonalLoop=1;jettySize=auto;html=1;curved=1;" edge="1" parent="1" source="onQa2OD9SXyAo4OJvlsq-27" target="onQa2OD9SXyAo4OJvlsq-31">
          <mxGeometry relative="1" as="geometry">
            <Array as="points">
              <mxPoint x="-770" y="-470" />
            </Array>
          </mxGeometry>
        </mxCell>
        <mxCell id="onQa2OD9SXyAo4OJvlsq-40" value="ε" style="edgeLabel;html=1;align=center;verticalAlign=middle;resizable=0;points=[];" vertex="1" connectable="0" parent="onQa2OD9SXyAo4OJvlsq-39">
          <mxGeometry x="0.2098" relative="1" as="geometry">
            <mxPoint x="-5" y="33" as="offset" />
          </mxGeometry>
        </mxCell>
      </root>
    </mxGraphModel>
  </diagram>
</mxfile>
